# xmcd
#
# Track frame offsets:
#	150
#	19066
#	36018
#	53626
#	69398
#	83810
#	102644
#	123549
#	142649
#	158932
#	178241
#	195742
#	214328
#	230687
#	248471
#	272286
#	290010
#	306028
#	326937
#	346957
#
# Disc length: 4842 seconds
#
# Revision: 4
# Processed by: cddbd v1.5.2PL0 Copyright (c) Steve Scherf et al.
# Submitted via: EasyCDDAExtractor 15.3.0.1
#
DISCID=2412e814
DTITLE=Paulina Rubio - Mio - Paulina Y Sus Exitos
DYEAR=2006
DGENRE=Latin
TTITLE0=Te Daria Mi Vida
TTITLE1=Mio
TTITLE2=Amor De Mujer
TTITLE3=Enamorada
TTITLE4=Despiertate
TTITLE5=El Me Engaño
TTITLE6=Sangre Latina
TTITLE7=Miel Y Sal
TTITLE8=Vuelve Junto A Mi
TTITLE9=Solo Por Ti
TTITLE10=Besame En La Boca
TTITLE11=Tu Y Yo
TTITLE12=Pobre Niña Rica
TTITLE13=Hoy Te Deje De Amar
TTITLE14=Sola
TTITLE15=Si Te Marchas Con Otra
TTITLE16=Sabor A Miel
TTITLE17=Abriendo Las Puertas Al Amor
TTITLE18=Nada Puedes Hacer
TTITLE19=Maldito Amor
EXTD=
EXTT0=
EXTT1=
EXTT2=
EXTT3=
EXTT4=
EXTT5=
EXTT6=
EXTT7=
EXTT8=
EXTT9=
EXTT10=
EXTT11=
EXTT12=
EXTT13=
EXTT14=
EXTT15=
EXTT16=
EXTT17=
EXTT18=
EXTT19=
PLAYORDER=
